<?xml version="1.0" encoding="iso-8859-1"?>
<!-- Uploaded to: SVG Repo, www.svgrepo.com, Generator: SVG Repo Mixer Tools -->
<svg fill="#000000" height="800px" width="800px" version="1.1" id="Layer_1" xmlns="http://www.w3.org/2000/svg" xmlns:xlink="http://www.w3.org/1999/xlink" 
	 viewBox="0 0 511.999 511.999" xml:space="preserve">
<g>
	<g>
		<g>
			<path d="M468.048,357.849c-6.081,0-11.011,4.93-11.011,11.011v16.516h-33.216V368.86c0-6.081-4.93-11.011-11.011-11.011H294.445
				v-55.054c0-2.72-1.008-5.345-2.826-7.365l-18.853-20.947c11.672-11.491,18.926-27.458,18.926-45.092v-16.516h23.415
				c3.992,15.455,16.185,27.646,31.638,31.638v75.166c0,6.081,4.93,11.011,11.011,11.011s11.011-4.93,11.011-11.011v-75.166
				c18.975-4.902,33.032-22.165,33.032-42.649c0-20.484-14.057-37.747-33.032-42.649V84.048c0-6.081-4.93-11.011-11.011-11.011
				s-11.011,4.93-11.011,11.011v75.166c-15.455,3.993-27.646,16.185-31.638,31.638h-23.415v-3.303
				c0-14.251-9.229-26.378-22.021-30.743V82.581h24.774c6.081,0,11.011-4.93,11.011-11.011V11.011C305.456,4.93,300.526,0,294.445,0
				H162.316c-6.081,0-11.011,4.93-11.011,11.011V71.57c0,6.081,4.93,11.011,11.011,11.011h24.774v74.226
				c-12.792,4.365-22.021,16.493-22.021,30.743v41.841c0,17.635,7.254,33.6,18.926,45.092l-18.853,20.947
				c-1.819,2.022-2.826,4.645-2.826,7.365v55.054H43.951c-6.081,0-11.011,4.93-11.011,11.011v132.129
				c0,6.081,4.93,11.011,11.011,11.011h368.86c6.081,0,11.011-4.93,11.011-11.011v-93.591h33.216v16.516
				c0,6.081,4.93,11.011,11.011,11.011c6.081,0,11.011-4.93,11.011-11.011v-55.054C479.059,362.779,474.13,357.849,468.048,357.849z
				 M357.758,179.842c12.143,0,22.022,9.879,22.022,22.021c0,12.143-9.879,22.022-22.022,22.022
				c-12.143,0-22.021-9.879-22.021-22.022C335.737,189.721,345.615,179.842,357.758,179.842z M269.672,187.549v41.841
				c0,22.768-18.522,41.29-41.29,41.29c-22.768,0-41.29-18.522-41.29-41.29v-41.841c0-5.767,4.693-10.46,10.46-10.46h61.66
				C264.979,177.089,269.672,181.782,269.672,187.549z M209.113,155.068V82.581h38.538v72.487H209.113z M173.328,60.559V22.021h0
				h110.107v38.538H173.328z M184.339,307.021l17.965-19.961c4.742,2.153,9.792,3.736,15.067,4.665v29.055
				c0,6.081,4.93,11.011,11.011,11.011c6.081,0,11.011-4.93,11.011-11.011v-29.055c5.275-0.929,10.325-2.512,15.067-4.665
				l17.965,19.961v50.829h-88.086V307.021z M401.801,489.979H54.962v-55.054h346.839V489.979z M401.801,412.903H54.962
				c0,0,0-33.032,0-33.032h346.839V412.903z"/>
			<path d="M228.382,231.41c-6.081,0-11.011,4.93-11.011,11.011v1.101c0,6.08,4.93,11.011,11.011,11.011s11.011-4.93,11.011-11.011
				v-1.101C239.392,236.339,234.463,231.41,228.382,231.41z"/>
		</g>
	</g>
</g>
</svg>