<?xml version="1.0" standalone="no"?>
<!DOCTYPE svg PUBLIC "-//W3C//DTD SVG 20010904//EN"
 "http://www.w3.org/TR/2001/REC-SVG-20010904/DTD/svg10.dtd">
<svg version="1.0" xmlns="http://www.w3.org/2000/svg"
 width="1280.000000pt" height="1280.000000pt" viewBox="0 0 1280.000000 1280.000000"
 preserveAspectRatio="xMidYMid meet">
<metadata>
Created by potrace 1.15, written by Peter Selinger 2001-2017
</metadata>
<g transform="translate(0.000000,1280.000000) scale(0.100000,-0.100000)"
fill="#ffffff" stroke="none">
<path d="M6850 12572 c-58 -17 -799 -301 -842 -324 -17 -8 -18 -42 -18 -493
l0 -485 -27 -6 c-643 -146 -1256 -406 -1721 -731 -258 -180 -556 -454 -722
-663 -374 -471 -547 -986 -527 -1565 13 -355 79 -628 222 -921 325 -663 1038
-1183 2090 -1527 194 -63 464 -139 613 -172 l72 -17 0 -1320 0 -1321 -127 7
c-260 14 -574 64 -865 136 -439 110 -803 245 -1308 485 -224 107 -301 135
-386 142 l-61 6 -51 -49 c-82 -80 -84 -94 -56 -587 l18 -327 135 -89 c517
-337 1034 -571 1556 -706 360 -93 612 -126 953 -127 l202 0 0 -626 c1 -767 8
-866 72 -963 65 -97 254 -107 424 -24 205 100 394 408 458 742 19 101 24 198
36 642 5 194 10 355 12 356 2 2 84 20 183 39 766 154 1381 465 1887 954 381
370 617 761 733 1216 83 327 98 713 40 1004 -160 794 -817 1366 -2055 1790
-149 51 -467 146 -606 181 l-40 11 3 82 c4 87 56 1782 73 2388 6 195 13 397
16 449 l6 93 62 -6 c278 -31 770 -136 975 -208 l94 -33 393 -549 c216 -302
405 -562 420 -577 48 -51 107 -73 175 -66 83 9 167 41 206 79 73 70 71 52 118
983 24 462 46 886 49 941 l6 102 -167 59 c-516 185 -985 294 -1508 353 -184
20 -531 40 -708 40 l-98 0 6 93 c3 50 15 274 26 495 l19 404 -46 69 c-25 38
-60 80 -78 94 -77 59 -222 79 -336 47z m-860 -3731 l0 -1370 -52 15 c-512 150
-969 370 -1192 575 -181 167 -283 378 -305 634 -30 349 78 660 313 904 249
257 626 462 1051 572 82 21 158 38 168 39 16 0 17 -72 17 -1369z m1262 -3422
c521 -187 910 -428 1064 -661 171 -256 159 -592 -31 -884 -165 -253 -530 -513
-960 -682 -134 -52 -282 -99 -288 -91 -3 3 58 2359 62 2367 2 5 13 1 153 -49z"/>
</g>
</svg>
