<svg width="549" height="86" viewBox="0 0 549 86" fill="none" xmlns="http://www.w3.org/2000/svg">
<path d="M10.7227 65.764V85.7879H0.118164V19.9803H9.26223L10.0878 25.5472C11.8023 23.4728 13.8977 21.8854 16.3954 20.7424C18.8931 19.6206 21.7295 19.049 24.9045 19.049C28.7992 19.049 32.2494 19.8957 35.2339 21.6102C38.2184 23.3247 40.5255 25.78 42.1342 28.9762C43.7428 32.1724 44.5472 35.9401 44.5472 40.2581V49.9525C44.5472 54.1647 43.7005 57.8689 42.0284 61.0651C40.3562 64.2613 37.9644 66.759 34.8952 68.5158C31.826 70.2727 28.2912 71.1617 24.333 71.1617C18.6603 71.1617 14.1306 69.3624 10.7227 65.764ZM13.538 58.7156C15.5488 60.6629 18.4486 61.6366 22.2163 61.6366C25.984 61.6366 28.8838 60.6629 30.8946 58.7156C32.9055 56.7683 33.9004 53.9954 33.9004 50.3971V39.7925C33.9004 36.1941 32.9055 33.4213 30.8946 31.474C28.8838 29.5266 25.984 28.5529 22.2163 28.5529C18.4486 28.5529 15.5488 29.5266 13.538 31.474C11.5271 33.4213 10.5322 36.1941 10.5322 39.7925V50.3971C10.5322 53.9954 11.5271 56.7683 13.538 58.7156Z" fill="white"/>
<path d="M70.0324 0.760498V11.7249H58.8774V0.760498H70.0324ZM69.7572 19.9588V70.2299H59.1526V19.9588H69.7572Z" fill="white"/>
<path d="M116.874 31.1142C115.265 29.3997 112.556 28.5531 108.788 28.5531C105.021 28.5531 102.227 29.4632 100.11 31.3047C97.9722 33.1251 96.8715 35.9615 96.8292 39.8138V70.2515H86.2246V4.44409H96.8292V25.0181C100.491 21.0599 105.423 19.0703 111.646 19.0703C117.192 19.0703 121.615 20.679 124.939 23.8752C128.262 27.0714 129.913 31.3894 129.913 36.808V70.2727H119.308V39.5597C119.308 35.665 118.504 32.8499 116.895 31.1566L116.874 31.1142Z" fill="white"/>
<path d="M149.366 65.3831C145.281 61.5519 143.249 56.1543 143.249 49.2116V40.9778C143.249 36.5963 144.201 32.7439 146.127 29.4207C148.053 26.0975 150.763 23.5363 154.255 21.7372C157.748 19.938 161.833 19.049 166.447 19.049C173.75 19.049 179.465 20.9752 183.55 24.8064C187.635 28.6376 189.667 34.0351 189.667 40.9778V49.2116C189.667 53.5931 188.715 57.4455 186.789 60.7687C184.862 64.0919 182.153 66.6531 178.661 68.4523C175.147 70.2514 171.083 71.1405 166.447 71.1405C159.145 71.1405 153.43 69.2142 149.345 65.3831H149.366ZM157.24 58.3557C159.441 60.43 162.51 61.4673 166.469 61.4673C170.427 61.4673 173.496 60.43 175.697 58.3557C177.899 56.2813 178.978 53.3815 178.978 49.6773V40.5333C178.978 36.8079 177.877 33.9293 175.697 31.855C173.496 29.7806 170.427 28.7434 166.469 28.7434C162.51 28.7434 159.441 29.7806 157.24 31.855C155.038 33.9293 153.959 36.8291 153.959 40.5333V49.6773C153.959 53.4027 155.06 56.2813 157.24 58.3557Z" fill="white"/>
<path d="M211.977 67.1814C209.966 65.1494 208.971 62.1648 208.971 58.2701V29.4834H197.541V19.9794H208.971V8.10486H219.491V19.9794H236.319V29.4834H219.491V56.9154C219.491 59.3496 220.888 60.5774 223.703 60.5774H230.477V70.2717H220.888C216.993 70.2717 214.03 69.2556 212.019 67.2025L211.977 67.1814Z" fill="white"/>
<path d="M246.352 67.3939C243.558 64.8962 242.14 61.4249 242.14 56.9798V56.2389C242.14 52.4077 243.367 49.2116 245.844 46.6504C248.32 44.0893 251.982 42.4171 256.85 41.6339L273.022 38.9881V29.4842H246.796V19.9802H283.457V70.2513H274.398L273.572 64.3035C271.752 66.5048 269.508 68.1982 266.862 69.3835C264.217 70.5689 261.274 71.1616 258.036 71.1616C253.04 71.1616 249.146 69.9127 246.331 67.4151L246.352 67.3939ZM254.353 60.8745C255.602 61.827 257.38 62.2927 259.708 62.2927C263.603 62.2927 266.799 61.2978 269.297 59.2869C271.794 57.2761 273.043 54.7149 273.043 51.6034V47.6664L261.063 49.4021C258.142 49.8254 255.983 50.5874 254.565 51.6458C253.146 52.7041 252.469 54.1223 252.469 55.9003V56.7259C252.469 58.5462 253.083 59.9431 254.353 60.8956V60.8745Z" fill="white"/>
<path d="M310.889 58.3553V70.23H299.015V58.3553H310.889Z" fill="white"/>
<path d="M325.875 67.3939C323.081 64.8962 321.663 61.4249 321.663 56.9798V56.2389C321.663 52.4077 322.891 49.2116 325.367 46.6504C327.844 44.0893 331.506 42.4171 336.374 41.6339L352.545 38.9881V29.4842H326.32V19.9802H362.981V70.2513H353.921L353.096 64.3035C351.275 66.5048 349.032 68.1982 346.386 69.3835C343.74 70.5689 340.798 71.1616 337.559 71.1616C332.564 71.1616 328.669 69.9127 325.854 67.4151L325.875 67.3939ZM333.876 60.8745C335.125 61.827 336.903 62.2927 339.232 62.2927C343.126 62.2927 346.322 61.2978 348.841 59.2869C351.339 57.2761 352.588 54.7149 352.588 51.6034V47.6664L340.607 49.4021C337.686 49.8254 335.527 50.5874 334.109 51.6458C332.712 52.7041 332.014 54.1223 332.014 55.9003V56.7259C332.014 58.5462 332.649 59.9431 333.898 60.8956L333.876 60.8745Z" fill="white"/>
<path d="M378.517 19.9585H387.661L388.487 25.8004C391.831 21.9057 396.276 19.9585 401.822 19.9585H410.966V29.8222H399.451C392.635 29.8222 389.185 33.1454 389.122 39.7918V70.2296H378.517V19.9585Z" fill="white"/>
<path d="M479.8 31.0287C478.403 29.3777 476.138 28.5523 473.027 28.5523C469.492 28.5523 466.804 29.4836 464.941 31.3463C463.078 33.209 462.126 35.8759 462.062 39.3473L461.978 50.3964V70.2297H451.373V39.0509C451.373 35.3256 450.675 32.6586 449.278 31.0076C447.881 29.3566 445.616 28.5311 442.504 28.5311C439.16 28.5311 436.514 29.4835 434.588 31.3674C432.662 33.2512 431.688 35.9182 431.625 39.3261V70.2297H421.02V19.9586H430.164L430.905 25.2503C432.556 23.2394 434.567 21.6941 436.98 20.6358C439.393 19.5774 442.06 19.0272 444.981 19.0272C448.156 19.0272 450.95 19.641 453.384 20.8475C455.818 22.0752 457.766 23.7685 459.226 25.9699C460.941 23.7262 463.1 21.9905 465.724 20.8052C468.349 19.6198 471.291 19.0272 474.593 19.0272C480.075 19.0272 484.436 20.5935 487.674 23.7262C490.913 26.8589 492.521 31.0499 492.521 36.2993V70.2085H481.917V39.0297C481.917 35.3044 481.218 32.6374 479.821 30.9864L479.8 31.0287Z" fill="white"/>
<path d="M510.513 19.9589L524.504 58.7153L538.114 19.9589H548.719L524.673 85.7664H514.429L519.445 72.135L499.062 19.9377H510.492L510.513 19.9589Z" fill="white"/>
</svg>
