<svg width="1592" height="922" viewBox="0 0 1592 922" fill="none" xmlns="http://www.w3.org/2000/svg">
<path d="M34.5783 41.7096L58.9836 114.523H72.8902C76.9542 99.0293 81.3993 83.9585 86.2253 69.3534L95.1788 41.7096H127.966L115.203 79.069C109.615 95.5791 104.852 111.475 100.915 126.715L88.342 175.124H57.2691L65.4606 143.479H36.6738L0.647949 41.6885H34.5783V41.7096Z" fill="white"/>
<path d="M145.916 41.709H177.37V94.6894H191.086L225.206 41.709H259.708L223.873 95.0704L263.137 175.123H228.635L202.516 122.143H177.348V175.123H145.895V41.709H145.916Z" fill="white"/>
<path d="M281.065 41.709H336.903C352.651 41.709 364.864 45.392 373.5 52.758C382.136 60.1241 386.454 70.4112 386.454 83.6404V88.9744C386.454 101.928 382.009 112.173 373.119 119.666C364.356 127.159 352.27 130.906 336.903 130.906H312.688V175.123H281.044V41.709H281.065ZM335.57 105.357C341.793 105.357 346.492 103.961 349.667 101.166C352.969 98.2455 354.62 94.1179 354.62 88.7839V84.5929C354.62 79.2588 352.969 75.1948 349.667 72.4008C346.492 69.4798 341.793 68.0193 335.57 68.0193H312.688V105.379H335.57V105.357Z" fill="white"/>
<path d="M423.709 41.709H478.404L514.62 175.123H481.642L475.165 149.575H425.614L419.137 175.123H387.492L423.709 41.709ZM468.878 124.429L455.162 70.4958H445.637L431.921 124.429H468.9H468.878Z" fill="white"/>
<path d="M565.844 41.7093V175.124H534.199V41.7093H565.844ZM541.438 0.158936V26.4693H510.937V0.158936H541.438ZM558.224 0.158936H588.725V26.4693H558.224V0.158936Z" fill="white"/>
<path d="M626.529 41.709V93.9274H675.127V41.709H706.772V175.123H675.127V122.905H626.529V175.123H594.884V41.709H626.529Z" fill="white"/>
<path d="M762.673 41.709H817.368L853.584 175.123H820.606L814.129 149.575H764.578L758.101 175.123H726.457L762.673 41.709ZM807.843 124.429L794.127 70.4958H784.602L770.886 124.429H807.864H807.843Z" fill="white"/>
<path d="M910.841 97.1665C910.841 85.6094 913.19 75.4917 917.889 66.8557C922.588 58.0926 929.256 51.3616 937.913 46.6414C946.676 41.8154 956.9 39.4023 968.605 39.4023C986.385 39.4023 1000.31 43.7838 1010.35 52.5469C1020.51 61.1829 1025.59 73.2692 1025.59 88.7633V92.3828H994.132V90.4778C994.132 83.2387 991.91 77.6507 987.465 73.7137C983.147 69.7767 977.05 67.8082 969.176 67.8082C960.794 67.8082 954.317 70.2212 949.724 75.0472C945.152 79.7462 942.866 86.4138 942.866 95.071V121.762C942.866 130.144 945.152 136.812 949.724 141.786C954.423 146.612 960.9 149.025 969.176 149.025C976.923 149.025 983.02 147.057 987.465 143.12C991.91 139.183 994.132 133.595 994.132 126.355V124.26H1025.59V128.07C1025.59 137.976 1023.24 146.676 1018.54 154.19C1013.97 161.556 1007.36 167.271 998.725 171.335C990.216 175.399 980.247 177.431 968.795 177.431C950.634 177.431 936.389 172.351 926.102 162.191C915.942 151.904 910.862 137.722 910.862 119.688V97.1877L910.841 97.1665Z" fill="white"/>
<path d="M1148.99 70.4958H1108.96V175.144H1077.32V70.4958H1037.1V41.709H1148.99V70.4958Z" fill="white"/>
<path d="M1219.58 177.41C1200.66 177.41 1185.84 172.33 1175.17 162.17C1164.63 152.01 1159.36 137.828 1159.36 119.667V97.1665C1159.36 85.4824 1161.77 75.3012 1166.6 66.6651C1171.55 57.9021 1178.54 51.1711 1187.58 46.4509C1196.72 41.7519 1207.41 39.4023 1219.6 39.4023C1238.52 39.4023 1253.28 44.5459 1263.82 54.8329C1274.49 64.993 1279.82 79.1112 1279.82 97.1453V119.646C1279.82 131.33 1277.34 141.574 1272.39 150.337C1267.54 158.973 1260.56 165.641 1251.41 170.34C1242.4 175.039 1231.77 177.389 1219.58 177.389V177.41ZM1191.36 121.762C1191.36 130.271 1193.84 136.875 1198.79 141.596C1203.75 146.295 1210.67 148.644 1219.56 148.644C1228.45 148.644 1235.5 146.358 1240.34 141.786C1245.17 137.087 1247.58 130.419 1247.58 121.762V95.071C1247.58 86.5619 1245.11 79.9579 1240.15 75.2377C1235.31 70.5387 1228.47 68.1891 1219.56 68.1891C1210.65 68.1891 1203.43 70.5387 1198.6 75.2377C1193.78 79.8097 1191.36 86.4138 1191.36 95.071V121.762Z" fill="white"/>
<path d="M1336.08 41.7093V175.124H1304.44V41.7093H1336.08ZM1311.68 0.158936V26.4693H1281.17V0.158936H1311.68ZM1328.46 0.158936H1358.96V26.4693H1328.46V0.158936Z" fill="white"/>
<path d="M1467.29 70.4958H1427.27V175.144H1395.64V70.4958H1355.43V41.709H1467.32V70.4958H1467.29Z" fill="white"/>
<path d="M1486.68 41.709H1518.33V90.1174H1542.35C1558.1 90.1174 1570.31 93.6099 1578.95 100.595C1587.61 107.58 1591.92 117.423 1591.92 130.144V135.097C1591.92 147.543 1587.48 157.343 1578.59 164.455C1569.83 171.567 1557.76 175.123 1542.37 175.123H1486.72V41.709H1486.68ZM1540.81 148.644C1547.16 148.644 1551.92 147.437 1555.11 145.024C1558.42 142.484 1560.07 138.865 1560.07 134.165V130.355C1560.07 125.656 1558.42 122.1 1555.11 119.687C1551.94 117.147 1547.18 115.877 1540.81 115.877H1518.33V148.665H1540.81V148.644Z" fill="white"/>
<path d="M1345.52 207.89C1351.26 207.89 1355.94 212.547 1355.94 218.325V440.978C1355.94 446.715 1351.28 451.414 1345.52 451.414H1225.74C1219.98 451.414 1215.3 456.07 1215.3 461.828V641.132C1215.3 646.868 1210.65 651.546 1204.89 651.546H396.34C390.603 651.546 385.926 646.889 385.926 641.132V461.828C385.926 456.092 381.269 451.414 375.512 451.414H247.05C241.314 451.414 236.615 446.757 236.615 440.978V218.325C236.615 212.589 241.293 207.89 247.05 207.89H1345.52ZM845.647 454.06C833.37 454.06 822.617 456.43 813.389 461.172C804.308 465.913 797.26 472.686 792.264 481.513C787.396 490.212 784.962 500.457 784.962 512.226V534.874C784.962 553.184 790.275 567.45 800.9 577.674C811.653 587.918 826.554 593.041 845.626 593.041C857.902 593.041 868.592 590.67 877.693 585.929C886.901 581.187 893.949 574.477 898.818 565.778C903.813 556.951 906.311 546.643 906.311 534.874V512.226C906.311 494.044 900.934 479.841 890.182 469.617C879.556 459.245 864.718 454.06 845.647 454.06ZM450.611 456.367V590.755H482.488V485.365H531.447V590.755H563.324V456.367H450.632H450.611ZM592.535 456.367V590.755H624.391V456.367H592.535ZM643.864 456.367L677.075 517.983L642.319 590.755H676.694L701.268 537.774H715.662L740.617 590.755H776.135L740.617 516.84L774.59 456.367H738.691L712.381 509.728H707.004L680.885 456.367H643.843H643.864ZM916.45 456.367V485.344H956.963V590.733H988.84V485.344H1029.14V456.367H916.45ZM1063.18 456.367L1026.71 590.755H1058.56L1065.08 565.037H1114.99L1121.51 590.755H1154.72L1118.25 456.367H1063.16H1063.18ZM845.647 483.037C854.6 483.037 861.522 485.408 866.369 490.149C871.365 494.89 873.862 501.537 873.862 510.109V536.991C873.862 545.691 871.428 552.422 866.56 557.142C861.691 561.756 854.727 564.063 845.626 564.063C836.524 564.063 829.687 561.693 824.692 556.951C819.696 552.21 817.199 545.564 817.199 536.991V510.109C817.199 501.41 819.633 494.742 824.501 490.149C829.37 485.408 836.397 483.037 845.626 483.037H845.647ZM1094.84 485.344L1108.67 539.679H1071.41L1085.23 485.344H1094.84ZM488.69 261.717C476.414 261.717 465.661 264.088 456.432 268.829C447.352 273.57 440.303 280.344 435.308 289.17C430.439 297.87 428.005 308.115 428.005 319.883V342.532C428.005 360.841 433.318 375.107 443.944 385.352C454.697 395.597 469.598 400.698 488.669 400.698C500.946 400.698 511.635 398.327 520.737 393.586C529.944 388.845 536.993 382.135 541.861 373.435C546.857 364.609 549.354 354.301 549.354 342.532V319.883C549.354 301.701 543.978 287.498 533.225 277.253C522.6 266.882 507.762 261.696 488.69 261.696V261.717ZM670.301 261.717C658.533 261.717 648.224 264.151 639.398 269.02C630.698 273.761 623.967 280.534 619.247 289.361C614.506 298.06 612.135 308.242 612.135 319.883V342.532C612.135 360.714 617.257 374.98 627.481 385.352C637.853 395.597 652.183 400.698 670.492 400.698C682.007 400.698 692.061 398.645 700.633 394.56C709.333 390.475 716 384.696 720.594 377.288C725.335 369.731 727.706 360.968 727.706 350.977V347.146H696.019V349.263C696.019 356.565 693.775 362.196 689.309 366.154C684.822 370.112 678.683 372.102 670.873 372.102C662.554 372.102 656.035 369.668 651.294 364.799C646.679 359.804 644.372 353.094 644.372 344.648V317.767C644.372 309.067 646.679 302.336 651.294 297.616C655.908 292.748 662.427 290.313 670.873 290.313C678.81 290.313 684.949 292.303 689.309 296.261C693.796 300.219 696.019 305.85 696.019 313.152V315.078H727.706V311.438C727.706 295.817 722.583 283.667 712.339 274.967C702.221 266.141 688.208 261.717 670.301 261.717ZM923.075 261.717C910.798 261.717 900.024 264.088 890.817 268.829C881.736 273.57 874.688 280.344 869.692 289.17C864.824 297.87 862.39 308.115 862.39 319.883V342.532C862.39 360.841 867.703 375.107 878.328 385.352C889.081 395.597 903.983 400.698 923.054 400.698C935.331 400.698 946.02 398.327 955.122 393.586C964.329 388.845 971.378 382.135 976.246 373.435C981.241 364.609 983.739 354.301 983.739 342.532V319.883C983.739 301.701 978.363 287.498 967.61 277.253C956.984 266.882 942.146 261.696 923.075 261.696V261.717ZM306.825 264.024V398.412H365.373C380.211 398.412 391.937 394.898 400.51 387.85C409.082 380.801 413.379 371.276 413.379 359.232V354.237C413.379 342.214 409.146 332.859 400.7 326.212C392.254 319.566 380.486 316.221 365.373 316.221H337.919V291.266H404.341V264.003H306.825V264.024ZM739.284 262.077V293.001H779.797V398.391H811.653V293.001H851.976V264.024L739.284 262.077ZM1008.55 264.024V398.412H1040.42V264.024H1008.55ZM1059.88 264.024V293.001H1100.39V398.391H1132.25V293.001H1172.57V264.024H1059.88ZM1192.08 264.024V398.412H1248.13C1263.63 398.412 1275.78 394.835 1284.6 387.659C1293.56 380.484 1298.04 370.641 1298.04 358.089V353.094C1298.04 340.288 1293.68 330.382 1284.98 323.334C1276.28 316.285 1263.99 312.771 1248.13 312.771H1223.94V264.003H1192.06L1192.08 264.024ZM363.256 341.389C369.267 341.389 373.818 342.532 376.887 344.839C379.957 347.146 381.502 350.469 381.502 354.83V358.47C381.502 362.958 379.957 366.344 376.887 368.652C373.818 370.959 369.267 372.102 363.256 372.102H337.919V341.389H363.256ZM488.69 290.716C497.644 290.716 504.565 293.086 509.434 297.828C514.429 302.569 516.927 309.215 516.927 317.788V344.67C516.927 353.369 514.493 360.1 509.624 364.82C504.756 369.435 497.792 371.721 488.69 371.721C479.589 371.721 472.752 369.35 467.756 364.609C462.761 359.867 460.263 353.221 460.263 344.648V317.767C460.263 309.067 462.698 302.4 467.566 297.806C472.434 293.065 479.462 290.694 488.69 290.694V290.716ZM923.075 290.716C932.029 290.716 938.95 293.086 943.818 297.828C948.814 302.569 951.311 309.215 951.311 317.788V344.67C951.311 353.369 948.877 360.1 944.009 364.82C939.141 369.435 932.177 371.721 923.075 371.721C913.973 371.721 907.136 369.35 902.141 364.609C897.146 359.867 894.648 353.221 894.648 344.648V317.767C894.648 309.067 897.082 302.4 901.951 297.806C906.819 293.065 913.846 290.694 923.075 290.694V290.716ZM1246.61 338.701C1253.02 338.701 1257.81 339.992 1261 342.532C1264.35 344.966 1266 348.543 1266 353.285V357.116C1266 361.857 1264.35 365.498 1261 368.059C1257.81 370.493 1253 371.7 1246.61 371.7H1223.96V338.679H1246.61V338.701ZM985.136 222.177V248.678H1015.85V222.177H985.136ZM1032.74 222.177V248.678H1063.45V222.177H1032.74Z" fill="white"/>
<path fill-rule="evenodd" clip-rule="evenodd" d="M796.265 921.21C789.068 912.595 783.565 902.689 780.284 892.889H731.071V767.92C765.425 783.584 760.599 829.114 755.688 865.309H782.189L781.279 830.807C780.602 818.319 780.242 805.746 779.226 793.405C777.723 775.138 783.628 759.327 796.286 745.505C808.944 759.327 814.849 775.138 813.347 793.405C812.331 805.746 811.971 818.319 811.293 830.807L810.383 865.309H836.884C831.973 829.114 827.126 783.584 861.501 767.92V892.889H812.288C809.007 902.689 803.504 912.595 796.307 921.21H796.265Z" fill="white"/>
</svg>
